<svg id="レイヤー_1" data-name="レイヤー 1" xmlns="http://www.w3.org/2000/svg" viewBox="0 0 1000 1000"><defs><style>.cls-1{fill:#fefefe;}.cls-2{fill:#040303;}.cls-3{fill:#f3f3f3;}.cls-4,.cls-5{fill:#ea5353;}.cls-5{stroke:#000;stroke-miterlimit:10;stroke-width:10px;}</style></defs><path class="cls-1" d="M925.92,493.5q0,206.88.08,413.76c0,3-.69,3.74-3.74,3.74q-413.76-.12-827.52,0c-3,0-3.74-.69-3.74-3.74q.12-413.76,0-827.52c0-3,.69-3.74,3.74-3.74q413.76.12,827.52,0c3,0,3.74.69,3.74,3.74Q925.87,286.62,925.92,493.5ZM165.85,166.61c-14.36,17-26.08,34.67-35.09,54.23-7.83,17-9.34,34.45-6,52.6,4.52,25,14.61,47.57,29.5,68,1.38,1.91,1.4,3.1,0,4.92A86.15,86.15,0,0,0,144,365.17c-10.64,25.67-13.37,52.77-13.56,80.14-.15,22.06,2.3,44,5.24,65.88,4,29.64,13.77,57.2,27.49,83.53C178.4,624,197.1,651,217.94,676.46c2.33,2.85,2.18,5.34,1.56,8.41-2.67,13.13-4.64,26.38-4.56,39.81.06,10.83.73,21.67.69,32.5-.06,18.69-1.75,37.38.08,56.06.79,8.13,2.32,16.08,7.27,22.84,3,4.07,6.26,7.86,12,8.08a88.37,88.37,0,0,0,21.75-2.1c22.69-4.76,44.75-11.7,66.76-18.85,31.08-10.1,61.86-21.07,92.47-32.52,2.64-1,4.05-.86,5.59,1.84,3.73,6.51,8.76,12,14.24,17.13,2.05,1.9,5.78,3.06,5.87,5.68.09,2.44-2.34,5-3.65,7.47-5.49,10.46-11,20.92-16.61,31.66h132c-6.62-11.48-12.93-22.59-19.46-33.58-1.33-2.25-1.05-3.15,1.09-4.57a72.55,72.55,0,0,0,22.49-23.14c1.9-3.19,3.46-3.65,6.84-2.49,49.06,16.83,98.24,33.33,148.45,46.52,15,3.94,30,7.58,45.58,8.84,8,.65,14.4-1.48,19.18-8a37,37,0,0,0,5-9.21A68.89,68.89,0,0,0,786.52,805c0-28.9.35-57.78.84-86.67a6.52,6.52,0,0,1,2.61-5.4c46.62-39.83,79.11-89,96.88-147.72,8.09-26.77,11.81-54.26,13.94-82.07,2.23-29.15,2.09-58.15-3.41-87-3.09-16.22-7.78-31.92-17-45.88-1.24-1.88-.5-2.77.56-4.16,12.2-16,21.55-33.59,26.66-53.14,3.67-14,6.19-28.33,2.76-42.86-2.75-11.66-8-22.27-14.15-32.49a216.65,216.65,0,0,0-26.87-36,117.41,117.41,0,0,1-13.26,26.2c-10.37,15.14-22.77,27.94-40.65,34-11,3.72-21.25,3.87-32.45-2.24-56-30.55-114.16-56.24-176-72.7-21.29-5.66-42.87-9.73-64.94-11.1-13-.8-26-.2-39,.06a542.88,542.88,0,0,0-71.94,6,376.66,376.66,0,0,0-80.8,22.29c-35.75,14.09-69.91,31.58-104.28,48.61a10.19,10.19,0,0,1-4.14,1.45,54.77,54.77,0,0,1-25.26-4.58c-15.53-6.91-26.57-18.79-35.85-32.57A130.92,130.92,0,0,1,165.85,166.61Z"/><path class="cls-2" d="M165.85,166.61A130.92,130.92,0,0,0,180.77,197c9.28,13.78,20.32,25.66,35.85,32.57a54.77,54.77,0,0,0,25.26,4.58,10.19,10.19,0,0,0,4.14-1.45c34.37-17,68.53-34.52,104.28-48.61a376.66,376.66,0,0,1,80.8-22.29,542.88,542.88,0,0,1,71.94-6c13-.26,26-.86,39-.06,22.07,1.37,43.65,5.44,64.94,11.1,61.87,16.46,120,42.15,176,72.7,11.2,6.11,21.44,6,32.45,2.24,17.88-6.05,30.28-18.85,40.65-34a117.41,117.41,0,0,0,13.26-26.2,216.65,216.65,0,0,1,26.87,36c6.12,10.22,11.4,20.83,14.15,32.49,3.43,14.53.91,28.82-2.76,42.86-5.11,19.55-14.46,37.1-26.66,53.14-1.06,1.39-1.8,2.28-.56,4.16,9.2,14,13.89,29.66,17,45.88,5.5,28.8,5.64,57.8,3.41,87-2.13,27.81-5.85,55.3-13.94,82.07C869.08,623.93,836.59,673.06,790,712.89a6.52,6.52,0,0,0-2.61,5.4c-.49,28.89-.83,57.77-.84,86.67a68.89,68.89,0,0,1-3.95,23.86,37,37,0,0,1-5,9.21c-4.78,6.54-11.23,8.67-19.18,8-15.54-1.26-30.6-4.9-45.58-8.84C662.6,824,613.42,807.52,564.36,790.69c-3.38-1.16-4.94-.7-6.84,2.49A72.55,72.55,0,0,1,535,816.32c-2.14,1.42-2.42,2.32-1.09,4.57,6.53,11,12.84,22.1,19.46,33.58h-132c5.64-10.74,11.12-21.2,16.61-31.66,1.31-2.5,3.74-5,3.65-7.47-.09-2.62-3.82-3.78-5.87-5.68-5.48-5.11-10.51-10.62-14.24-17.13-1.54-2.7-2.95-2.83-5.59-1.84-30.61,11.45-61.39,22.42-92.47,32.52-22,7.15-44.07,14.09-66.76,18.85a88.37,88.37,0,0,1-21.75,2.1c-5.72-.22-9-4-12-8.08-4.95-6.76-6.48-14.71-7.27-22.84-1.83-18.68-.14-37.37-.08-56.06,0-10.83-.63-21.67-.69-32.5-.08-13.43,1.89-26.68,4.56-39.81.62-3.07.77-5.56-1.56-8.41C197.1,651,178.4,624,163.16,594.72c-13.72-26.33-23.51-53.89-27.49-83.53-2.94-21.9-5.39-43.82-5.24-65.88.19-27.37,2.92-54.47,13.56-80.14a86.15,86.15,0,0,1,10.26-18.77c1.36-1.82,1.34-3,0-4.92-14.89-20.47-25-43.05-29.5-68-3.29-18.15-1.78-35.62,6-52.6C139.77,201.28,151.49,183.6,165.85,166.61ZM323,608.41c.41.35.79.75,1.23,1.06q55.08,38.92,110.11,77.91c2.32,1.65,3.43.76,5.13-.6a80.17,80.17,0,0,1,100.28,0c2.42,2,4,2,6.59.4,23.45-14.55,47-28.91,70.53-43.37q25.05-15.4,50-30.9c1.29-.71,2.62-1.36,3.88-2.13,22.28-13.66,44.59-27.28,66.81-41,2.88-1.79,3.91-1.58,5.36,1.68C761.49,613,777.27,655.49,785.54,701c6.68-5.79,12.84-11.59,18.72-17.72a296.7,296.7,0,0,0,70.45-119.19c10.68-34.48,14.48-70,15.44-105.85.69-25.57-.81-51-8.24-75.69-3.63-12.09-7.9-24-17.66-32.81-2.09-1.9.14-2.56.9-3.43a142,142,0,0,0,29.42-51.45c4.08-12.72,7-25.82,4.66-39.2-3.52-19.79-15.15-35.62-26.59-51.77a145.1,145.1,0,0,1-14.27,21.14c-14.61,17.48-32.22,29.71-55.69,31.47-5.38.4-11,1.16-15.93-1.57q-23.64-13.07-48-24.75c-41.88-20.11-84.69-37.89-129.57-50.28-24.47-6.76-49.25-12-74.75-12.58a669.15,669.15,0,0,0-75.56,3,382.31,382.31,0,0,0-111.52,27.76c-32.79,13.54-64.45,29.44-96.11,45.36a19.55,19.55,0,0,1-7.25,2.38,65.07,65.07,0,0,1-34.73-6.35c-20.08-9.79-33.45-26.24-44.24-45.19-.75-1.32-1-3.08-2.73-3.88a277.82,277.82,0,0,0-15.82,25.13c-10.85,18.95-14.15,38.81-9.16,60.26a157.12,157.12,0,0,0,32.72,66.36c1.09,1.3,2.78,2.39.43,4.18-5.67,4.3-9.08,10.35-12.15,16.57-11.54,23.37-14.74,48.55-15.77,74.15-.8,20.11.79,40.11,3.19,60.06,2.58,21.44,6.54,42.55,14.65,62.72,15,37.3,36.76,70.49,61.38,102,.6.77.95,1.94,2.17,2,.25-.34.48-.52.54-.75A696.13,696.13,0,0,1,256.92,568c2-4.7,2-4.7,6.28-1.66Zm437.9,226.21c3.52.74,6.51-2.39,8.91-6.51a29,29,0,0,0,3-8c1.61-6.78,1.88-13.69,1.93-20.6.13-21.43-.72-42.88.7-64.28.91-13.67-.48-27.09-3.13-40.4-7.38-37.13-20.42-72.42-35-107.2-1.18-2.8-2.16-2.5-4.31-1.18q-89.24,54.79-178.58,109.42c-2.45,1.5-2.66,2.36-.9,4.73,16.87,22.72,21,47.68,12.47,74.65-.77,2.42-.6,3.46,2,4.34,50.17,16.9,100.4,33.65,151.66,47C732.61,830.07,745.65,833.26,760.94,834.62ZM227,761.33h0c0,13.44,0,26.87,0,40.31,0,8,.5,16,3.58,23.59,2.77,6.79,5.3,8,12.59,7.14a178.91,178.91,0,0,0,24.28-5c49-13.07,96.61-30.33,144.23-47.59,2.75-1,2.55-2.21,1.86-4.42-8.48-27.13-4.43-52.23,12.62-75,2-2.68,1.37-3.57-.91-5.18q-79-55.69-157.84-111.56c-2.86-2-3.69-1.51-4.85,1.49A739.4,739.4,0,0,0,237.7,659.5c-5.19,19.25-9.83,38.67-10.58,58.68C226.58,732.54,227,747,227,761.33Zm306,81.74c-4.95-8.56-9.53-16.5-14.13-24.43-3-5.13-3-5.1,2.18-7.89,22.76-12.33,35.66-31.48,37.23-57.21,2.51-41-30.91-74.15-72.08-72.43C442.17,683,411.05,727,423.91,769.29a66.77,66.77,0,0,0,30.47,39.11c3.18,1.9,3.13,3.34,1.53,6.22-4.48,8-8.69,16.2-12.91,24.37-.63,1.23-1.93,2.34-1.44,4.08Z"/><path class="cls-3" d="M323,608.41,263.2,566.3c-4.32-3-4.3-3-6.28,1.66a696.13,696.13,0,0,0-32.43,95.18c-.06.23-.29.41-.54.75-1.22-.07-1.57-1.24-2.17-2-24.62-31.5-46.39-64.69-61.38-102-8.11-20.17-12.07-41.28-14.65-62.72-2.4-19.95-4-39.95-3.19-60.06,1-25.6,4.23-50.78,15.77-74.15,3.07-6.22,6.48-12.27,12.15-16.57,2.35-1.79.66-2.88-.43-4.18a157.12,157.12,0,0,1-32.72-66.36c-5-21.45-1.69-41.31,9.16-60.26a277.82,277.82,0,0,1,15.82-25.13c1.73.8,2,2.56,2.73,3.88,10.79,18.95,24.16,35.4,44.24,45.19A65.07,65.07,0,0,0,244,245.88a19.55,19.55,0,0,0,7.25-2.38c31.66-15.92,63.32-31.82,96.11-45.36a382.31,382.31,0,0,1,111.52-27.76,669.15,669.15,0,0,1,75.56-3c25.5.55,50.28,5.82,74.75,12.58,44.88,12.39,87.69,30.17,129.57,50.28q24.35,11.68,48,24.75c4.94,2.73,10.55,2,15.93,1.57,23.47-1.76,41.08-14,55.69-31.47a145.1,145.1,0,0,0,14.27-21.14c11.44,16.15,23.07,32,26.59,51.77,2.39,13.38-.58,26.48-4.66,39.2a142,142,0,0,1-29.42,51.45c-.76.87-3,1.53-.9,3.43,9.76,8.83,14,20.72,17.66,32.81,7.43,24.7,8.93,50.12,8.24,75.69-1,35.87-4.76,71.37-15.44,105.85a296.7,296.7,0,0,1-70.45,119.19c-5.88,6.13-12,11.93-18.72,17.72-8.27-45.54-24-88-42.55-129.65-1.45-3.26-2.48-3.47-5.36-1.68-22.22,13.77-44.53,27.39-66.81,41-1.26.77-2.59,1.42-3.88,2.13a18.85,18.85,0,0,1,.35-2.39,198.55,198.55,0,0,0,6.78-42.63,217.87,217.87,0,0,0-1.29-39.69,226.68,226.68,0,0,0-7.54-36.37c-8.48-27.76-21.6-53-40.72-75-15.07-17.37-32.36-31.84-52.75-42.5a160.72,160.72,0,0,0-61.35-18.15,166.53,166.53,0,0,0-45.53,2.21c-18.94,3.6-36.52,10.75-53.13,20.44-19.16,11.19-35.18,26-49.09,43.06a191,191,0,0,0-26.85,44.26,232.93,232.93,0,0,0-14.2,44.31c-3.94,18.06-4.6,36.41-4.11,54.82a226.89,226.89,0,0,0,2.78,26.51C321.1,597.3,323.33,602.65,323,608.41Zm-1.32-254.12c.07-14.73-11.14-26.1-25.77-26.14a25.94,25.94,0,1,0,25.77,26.14Zm335.17.83a26,26,0,1,0,52,.53c.18-14-11.28-25.9-25.17-26.14C668.79,329.24,657.17,340.35,656.89,355.12ZM242.3,485.84c1.93-.07,2.11-1.35,2.57-2.24,2.16-4.21,4.24-8.46,6.36-12.69,4.16-8.32,4.16-8.32-4.27-12a1.73,1.73,0,0,1-.37-.16c-1.53-1.09-2.37-.43-3.11,1.06-3.09,6.31-6.25,12.59-9.38,18.89-.42.83-1.22,2-.28,2.56C236.69,483,239.72,484.47,242.3,485.84Zm-4.82-22.15c-.1-1.07-.95-1.28-1.65-1.64a32.89,32.89,0,0,1-4.69-2.41c-3.13-2.3-4.52-1.05-5.84,2.08-1.73,4.1-3.93,8-5.93,12-3.9,7.78-3.85,7.69,4.22,11.4,2.18,1,3.08.51,4-1.46,2.94-6.1,6-12.12,9-18.18C237,464.88,237.23,464.25,237.48,463.69ZM752,458.24c-1.39-.22-1.64.82-2.05,1.63-3.21,6.38-6.38,12.79-9.64,19.15-.8,1.55-.6,2.37,1,3.08,2.23.95,4.39,2.07,6.52,3.24,1.56.85,2.4.41,3.16-1.13,3.14-6.41,6.39-12.78,9.57-19.18.39-.79,1.22-1.76,0-2.43C757.69,461.07,754.78,459.65,752,458.24Zm-25.37,5.49a2.4,2.4,0,0,0-1.54-1.65c-1.93-1-3.92-1.83-5.76-2.95-2.06-1.26-3.23-1.05-4.29,1.31-2,4.43-4.29,8.72-6.46,13.06-3.89,7.79-3.87,7.73,4.1,11.47,1.93.91,3,1,4.07-1.19,2.87-6.1,6-12.09,9-18.13C726,465.05,726.29,464.43,726.61,463.73Zm-463.72-5.57c-1.73,0-1.86,1.33-2.31,2.2-2.22,4.32-4.37,8.68-6.54,13-4,8.11-4,8,4.26,11.75,2,.9,2.83.52,3.71-1.31,3-6.19,6.11-12.32,9.16-18.48.4-.8,1.41-1.89.39-2.52C268.69,461.08,265.65,459.62,262.89,458.16Zm480.85,5.64c0-1.11-.82-1.41-1.53-1.77-1.93-1-3.92-1.87-5.78-3s-3-.93-4,1.25c-2,4.44-4.31,8.75-6.49,13.1-4,8.1-4,8,4.27,11.71,2,.89,2.83.49,3.72-1.37,2.94-6.1,6-12.12,9.05-18.18C743.27,465,743.51,464.33,743.74,463.8Z"/><path class="cls-1" d="M323,608.41c.29-5.76-1.94-11.11-2.75-16.69a226.89,226.89,0,0,1-2.78-26.51c-.49-18.41.17-36.76,4.11-54.82a232.93,232.93,0,0,1,14.2-44.31,191,191,0,0,1,26.85-44.26c13.91-17,29.93-31.87,49.09-43.06,16.61-9.69,34.19-16.84,53.13-20.44a166.53,166.53,0,0,1,45.53-2.21,160.72,160.72,0,0,1,61.35,18.15c20.39,10.66,37.68,25.13,52.75,42.5,19.12,22.05,32.24,47.28,40.72,75a226.68,226.68,0,0,1,7.54,36.37,217.87,217.87,0,0,1,1.29,39.69,198.55,198.55,0,0,1-6.78,42.63,18.85,18.85,0,0,0-.35,2.39q-25,15.45-50,30.9c-23.51,14.46-47.08,28.82-70.53,43.37-2.62,1.62-4.17,1.56-6.59-.4a80.17,80.17,0,0,0-100.28,0c-1.7,1.36-2.81,2.25-5.13.6q-55-39.07-110.11-77.91C323.83,609.16,323.45,608.76,323,608.41ZM480.36,399.23c-13.56.15-26,1.71-37.71,7-12.84,5.8-15.13,13-7.47,24.74a127.83,127.83,0,0,0,42.34,40.24c8.29,4.94,16.11,4.87,24.31-.49A172.61,172.61,0,0,0,530,447.43c6.4-6.45,12.51-13.18,17.14-21.07,4-6.78,3.49-9.19-2.81-14-7-5.38-15.12-8.28-23.57-10.5C507.14,398.29,493.23,400.33,480.36,399.23Zm8.24,124c.81.68,1.54,1.26,2.22,1.88q10.35,9.47,20.69,18.94c6.51,6,6.42,5.91,12.39-.83,1.62-1.82,1.42-2.61-.26-4.12q-16.31-14.71-32.4-29.65c-1.91-1.78-3.12-2-5.22,0-9.37,8.82-18.93,17.45-28.46,26.12-6.18,5.62-6.08,5.47-.52,11.83,2,2.33,3.09,1.9,5,.06,8-7.5,16.18-14.84,24.29-22.24C487.06,524.61,487.76,524,488.6,523.28Z"/><path class="cls-4" d="M760.94,834.62c-15.29-1.36-28.33-4.55-41.3-7.94-51.26-13.4-101.49-30.15-151.66-47-2.62-.88-2.79-1.92-2-4.34,8.48-27,4.4-51.93-12.47-74.65-1.76-2.37-1.55-3.23.9-4.73Q643.73,641.3,733,586.49c2.15-1.32,3.13-1.62,4.31,1.18,14.61,34.78,27.65,70.07,35,107.2,2.65,13.31,4,26.73,3.13,40.4-1.42,21.4-.57,42.85-.7,64.28,0,6.91-.32,13.82-1.93,20.6a29,29,0,0,1-3,8C767.45,832.23,764.46,835.36,760.94,834.62Z"/><path class="cls-4" d="M227,761.33c0-14.38-.44-28.79.1-43.15.75-20,5.39-39.43,10.58-58.68a739.4,739.4,0,0,1,24.86-74.36c1.16-3,2-3.52,4.85-1.49q78.84,55.9,157.84,111.56c2.28,1.61,2.92,2.5.91,5.18-17.05,22.79-21.1,47.89-12.62,75,.69,2.21.89,3.42-1.86,4.42-47.62,17.26-95.23,34.52-144.23,47.59a178.91,178.91,0,0,1-24.28,5c-7.29.9-9.82-.35-12.59-7.14-3.08-7.55-3.55-15.56-3.58-23.59-.06-13.44,0-26.87,0-40.31Z"/><path class="cls-1" d="M533,843.07H441.56c-.49-1.74.81-2.85,1.44-4.08,4.22-8.17,8.43-16.35,12.91-24.37,1.6-2.88,1.65-4.32-1.53-6.22a66.77,66.77,0,0,1-30.47-39.11C411.05,727,442.17,683,486.22,681.11c41.17-1.72,74.59,31.43,72.08,72.43-1.57,25.73-14.47,44.88-37.23,57.21-5.15,2.79-5.16,2.76-2.18,7.89C523.49,826.57,528.07,834.51,533,843.07Zm-41.34-94.63V717.52c0-8.28,0-8.13-8.25-8.28-3.08,0-3.81.83-3.79,3.86.14,21.84.07,43.67.07,65.51,0,8.64,0,8.53,8.66,8.59,2.65,0,3.4-.67,3.37-3.36C491.59,772,491.68,760.24,491.68,748.44Zm-37.47-1.23V715.48c0-7.53,0-7.31-7.67-7.6-3.61-.14-4.12,1.13-4.1,4.34.14,21.84.07,43.67.07,65.5,0,8,0,7.81,8.09,8,3.26.08,3.71-1.09,3.67-3.94C454.12,770.27,454.21,758.74,454.21,747.21Zm60.26.8v31.34c0,7.79,0,7.56,7.7,7.88,3.6.15,4.08-1.09,4.06-4.29-.15-21.84-.08-43.68-.08-65.52,0-8.22,0-8.12-8.32-8.16-2.57,0-3.48.56-3.44,3.35C514.56,724.41,514.47,736.21,514.47,748Z"/><path class="cls-2" d="M321.72,354.29A25.94,25.94,0,1,1,296,328.15C310.58,328.19,321.79,339.56,321.72,354.29Z"/><path class="cls-2" d="M656.89,355.12c.28-14.77,11.9-25.88,26.81-25.61,13.89.24,25.35,12.15,25.17,26.14a26,26,0,1,1-52-.53Z"/><path class="cls-4" d="M242.3,485.84c-2.58-1.37-5.61-2.85-8.48-4.6-.94-.57-.14-1.73.28-2.56,3.13-6.3,6.29-12.58,9.38-18.89.74-1.49,1.58-2.15,3.11-1.06a1.73,1.73,0,0,0,.37.16c8.43,3.7,8.43,3.7,4.27,12-2.12,4.23-4.2,8.48-6.36,12.69C244.41,484.49,244.23,485.77,242.3,485.84Z"/><path class="cls-4" d="M237.48,463.69c-.25.56-.51,1.19-.81,1.79-3,6.06-6.11,12.08-9,18.18-1,2-1.85,2.46-4,1.46-8.07-3.71-8.12-3.62-4.22-11.4,2-4,4.2-7.9,5.93-12,1.32-3.13,2.71-4.38,5.84-2.08a32.89,32.89,0,0,0,4.69,2.41C236.53,462.41,237.38,462.62,237.48,463.69Z"/><path class="cls-4" d="M752,458.24c2.8,1.41,5.71,2.83,8.56,4.36,1.26.67.43,1.64,0,2.43-3.18,6.4-6.43,12.77-9.57,19.18-.76,1.54-1.6,2-3.16,1.13-2.13-1.17-4.29-2.29-6.52-3.24-1.64-.71-1.84-1.53-1-3.08,3.26-6.36,6.43-12.77,9.64-19.15C750.34,459.06,750.59,458,752,458.24Z"/><path class="cls-4" d="M726.61,463.73c-.32.7-.59,1.32-.89,1.92-3,6-6.12,12-9,18.13-1.05,2.24-2.14,2.1-4.07,1.19-8-3.74-8-3.68-4.1-11.47,2.17-4.34,4.47-8.63,6.46-13.06,1.06-2.36,2.23-2.57,4.29-1.31,1.84,1.12,3.83,2,5.76,2.95A2.4,2.4,0,0,1,726.61,463.73Z"/><path class="cls-4" d="M262.89,458.16c2.76,1.46,5.8,2.92,8.67,4.66,1,.63,0,1.72-.39,2.52-3.05,6.16-6.17,12.29-9.16,18.48-.88,1.83-1.71,2.21-3.71,1.31-8.27-3.72-8.31-3.64-4.26-11.75,2.17-4.34,4.32-8.7,6.54-13C261,459.49,261.16,458.17,262.89,458.16Z"/><path class="cls-4" d="M743.74,463.8c-.23.53-.47,1.16-.77,1.77-3,6.06-6.11,12.08-9.05,18.18-.89,1.86-1.71,2.26-3.72,1.37-8.29-3.69-8.32-3.61-4.27-11.71,2.18-4.35,4.47-8.66,6.49-13.1,1-2.18,2.1-2.38,4-1.25s3.85,2,5.78,3C742.92,462.39,743.71,462.69,743.74,463.8Z"/><path class="cls-2" d="M480.36,399.23c12.87,1.1,26.78-.94,40.36,2.62,8.45,2.22,16.56,5.12,23.57,10.5,6.3,4.82,6.79,7.23,2.81,14-4.63,7.89-10.74,14.62-17.14,21.07a172.61,172.61,0,0,1-28.13,23.27c-8.2,5.36-16,5.43-24.31.49A127.83,127.83,0,0,1,435.18,431c-7.66-11.74-5.37-18.94,7.47-24.74C454.33,400.94,466.8,399.38,480.36,399.23Z"/><path class="cls-2" d="M491.68,748.44c0,11.8-.09,23.6.06,35.4,0,2.69-.72,3.37-3.37,3.36-8.66-.06-8.66,0-8.66-8.59,0-21.84.07-43.67-.07-65.51,0-3,.71-3.91,3.79-3.86,8.24.15,8.25,0,8.25,8.28Z"/><path class="cls-2" d="M454.21,747.21c0,11.53-.09,23.06.06,34.58,0,2.85-.41,4-3.67,3.94-8.08-.2-8.09,0-8.09-8,0-21.83.07-43.66-.07-65.5,0-3.21.49-4.48,4.1-4.34,7.66.29,7.67.07,7.67,7.6Z"/><path class="cls-2" d="M514.47,748c0-11.8.09-23.6-.08-35.4,0-2.79.87-3.36,3.44-3.35,8.32,0,8.32-.06,8.32,8.16,0,21.84-.07,43.68.08,65.52,0,3.2-.46,4.44-4.06,4.29-7.7-.32-7.7-.09-7.7-7.88Z"/>
<ellipse class="cls-5" cx="489" cy="541" rx="34" ry="3">
    <animate
        attributeName="ry"
        dur="1s"
        repeatCount="indefinite"
        to="19"
    />
</ellipse>
</svg>
